<?xml version="1.0" standalone="no"?>
<!DOCTYPE svg PUBLIC "-//W3C//DTD SVG 20010904//EN"
 "http://www.w3.org/TR/2001/REC-SVG-20010904/DTD/svg10.dtd">
<svg version="1.0" xmlns="http://www.w3.org/2000/svg"
 width="300.000000pt" height="289.000000pt" viewBox="0 0 300.000000 289.000000"
 preserveAspectRatio="xMidYMid meet">

<g transform="translate(0.000000,289.000000) scale(0.100000,-0.100000)"
fill="#61dafb" stroke="none">
<path d="M536 2869 c-202 -49 -377 -187 -461 -366 -36 -75 -75 -233 -75 -302
1 -74 32 -211 65 -286 82 -183 252 -329 445 -381 79 -21 243 -24 320 -5 87 21
229 94 293 151 151 136 227 309 227 519 0 330 -211 596 -533 671 -106 24 -177
24 -281 -1z"/>
<path d="M2032 2874 c-149 -32 -264 -97 -368 -208 -230 -243 -247 -620 -41
-892 81 -106 196 -186 332 -231 65 -21 100 -26 190 -27 128 -1 197 15 313 71
112 55 233 177 290 293 92 187 104 363 37 553 -35 102 -81 173 -166 257 -92
92 -182 142 -315 175 -107 28 -177 30 -272 9z"/>
<path d="M2606 1482 c-2 -4 -22 -49 -44 -98 l-39 -91 51 -31 c71 -42 141 -119
176 -195 17 -34 30 -68 30 -74 0 -17 9 -17 122 9 115 25 113 16 41 167 -38 79
-59 108 -127 175 -77 78 -198 157 -210 138z"/>
<path d="M520 1354 c-255 -68 -443 -267 -500 -529 -24 -108 -25 -161 -5 -254
56 -267 214 -452 460 -537 70 -25 95 -28 200 -28 132 0 192 13 302 66 172 84
314 262 358 450 21 91 19 248 -5 342 -31 122 -82 208 -180 308 -71 72 -102 94
-171 127 -46 22 -111 47 -144 56 -75 19 -242 19 -315 -1z"/>
<path d="M1990 1354 c-216 -56 -404 -232 -474 -445 -107 -322 39 -684 334
-834 99 -50 187 -70 310 -69 98 0 127 4 195 28 108 37 175 77 256 153 118 112
184 238 210 403 11 74 7 198 -8 236 -8 19 -10 19 -109 -4 l-102 -23 5 -83 c9
-134 -36 -255 -133 -356 -240 -252 -652 -146 -755 192 -17 55 -21 88 -17 161
3 81 8 102 40 169 59 125 155 212 278 253 68 23 206 24 266 2 41 -15 42 -15
54 11 23 50 70 165 70 172 0 4 -35 17 -78 29 -94 25 -257 28 -342 5z"/>
</g>
</svg>
